<svg width="199" height="40" viewBox="0 0 199 40" fill="none" xmlns="http://www.w3.org/2000/svg">
<path d="M16.0429 27.3063C13.8665 26.498 11.628 26.3736 9.57599 26.9333C8.14581 27.3063 6.77781 28.0525 5.53417 28.9852L4.66361 29.7314L4.41489 29.9802L4.97452 30.4776C5.0367 30.4776 5.03671 30.5398 5.09889 30.602C5.22325 30.7263 5.34763 30.7885 5.53417 30.9129L5.90725 31.1616L6.28034 30.8507C6.34252 30.7885 6.46689 30.6642 6.59125 30.602C7.71052 29.6692 8.95415 29.0474 10.26 28.7365C11.9389 28.3012 13.7422 28.3634 15.5454 29.0474C17.0378 29.6071 20.0847 30.2911 23.7534 28.7365L23.8778 28.6743L24.0643 28.4878C24.0643 28.4256 24.1265 28.4256 24.1887 28.3634C24.4996 27.9903 24.8105 27.6172 25.0593 27.182L26.3029 25.2543L24.3131 26.3736C21.3905 27.9903 18.7167 28.3012 16.0429 27.3063Z" fill="#55B02E"/>
<path d="M7.52398 20.5907C9.20289 20.1554 11.0062 20.2176 12.8094 20.9016C14.7992 21.6478 19.8982 22.7049 25.6189 17.5438L26.5516 16.6111L26.6138 16.5489L26.8625 16.3002L26.7382 15.9893C26.676 15.7405 26.5516 15.4296 26.4272 15.1187L26.1163 14.2482L25.4945 14.87C25.4323 14.9944 25.308 15.0565 25.1836 15.1809C22.4476 17.9791 18.2192 20.8395 13.3691 19.0984C11.1927 18.29 8.95416 18.1656 6.90216 18.7253C4.91234 19.2849 3.17125 20.342 1.55452 21.8344V21.7722L0.621792 22.7671C0.621792 22.8293 0.559621 22.8293 0.497439 22.8915L0.310883 23.078L0.373068 23.3267C0.43525 23.6376 0.55961 23.9485 0.621792 24.2594L0.994886 25.2544L1.6167 24.446C1.67889 24.3216 1.80325 24.2595 1.86543 24.1351C3.17125 22.9536 4.97452 21.2747 7.52398 20.5907Z" fill="#55B02E"/>
<path d="M1.49235 19.4714C2.92253 17.9791 4.53925 17.0463 6.28034 16.5489C7.95925 16.1136 9.76252 16.1758 11.5658 16.8598C17.1622 18.9118 22.0123 15.554 24.1265 13.7507L24.9349 12.9424L25.2458 12.6936L24.9971 12.3205C24.8105 12.134 24.6862 11.8853 24.4996 11.6365L24.1265 11.1391L23.6912 11.5743C23.6291 11.6365 23.5047 11.7609 23.4425 11.8231C20.8309 14.3103 16.7891 16.8598 12.1876 15.1187C10.0112 14.3104 7.7727 14.186 5.7207 14.7456C4.41489 15.1187 3.17125 15.7405 1.92761 16.5489L0.621788 17.606C0.497424 17.7304 0.435242 17.7925 0.310879 17.9169L0.186526 18.0413V18.2278C0.124345 18.6631 0.124337 19.0984 0.0621551 19.4714L-3.05176e-05 21.026L1.05707 19.9067C1.18143 19.7823 1.3058 19.5958 1.49235 19.4714Z" fill="#55B02E"/>
<path d="M17.8462 31.5347L17.7218 31.9078L17.8462 31.5347C17.6596 31.4725 17.5353 31.4103 17.3487 31.3481C15.1724 30.5398 12.9338 30.4154 10.8818 30.9751C10.4465 31.0994 10.0113 31.2238 9.576 31.4103L8.08362 32.0943L7.71054 32.2809L8.95418 32.7162C9.32727 32.8405 9.70035 32.9649 10.0734 33.0892L10.26 33.1514L10.4465 33.0892C10.6331 33.0271 10.8196 32.9027 11.0062 32.9027C11.1305 32.9027 11.2549 32.8405 11.3793 32.7783C12.8716 32.4052 14.4883 32.4052 16.2294 32.9649C16.416 33.0271 16.5404 33.0893 16.7269 33.1514L17.0378 33.2758L17.2244 33.2136C17.6596 33.0892 18.1571 32.9649 18.5302 32.7783L20.2713 32.1565L18.468 31.7212C18.2814 31.6591 18.0327 31.5969 17.8462 31.5347Z" fill="#55B02E"/>
<path d="M27.36 18.6631L26.4273 19.5958C26.3029 19.7202 26.1786 19.8445 26.0542 19.9689C23.5047 22.394 19.4007 25.0056 14.7993 23.2645C12.6229 22.4562 10.3844 22.3318 8.33237 22.8915C6.40473 23.4511 4.66363 24.446 3.10908 25.9384L2.30073 26.8089L2.052 27.1198L2.30073 27.4929C2.48727 27.7416 2.61164 27.9282 2.73601 28.1769L3.10908 28.7365L3.54436 28.1769C3.60654 28.1147 3.7309 27.9904 3.79309 27.9282C5.28545 26.3114 6.90218 25.3165 8.76763 24.8191C10.4465 24.3838 12.2498 24.446 14.0531 25.13C15.6076 25.6896 17.2244 25.8762 18.8411 25.6896C21.7015 25.3787 24.5618 23.762 26.676 21.9587C26.8004 21.8344 26.9247 21.7722 27.0491 21.6478L27.2356 21.4613V21.2747C27.2356 20.9016 27.2978 20.4664 27.2978 20.0933L27.36 18.6631Z" fill="#55B02E"/>
<path d="M3.73088 12.9424L3.54434 12.5693L3.73088 12.9424C4.10397 12.7558 4.53926 12.6315 4.91235 12.5071C6.59126 12.0718 8.39453 12.134 10.1978 12.818C11.3793 13.2533 12.5607 13.4398 13.8665 13.4398C16.4782 13.4398 19.0898 12.5071 21.5149 10.7038L22.4476 9.95764L22.7585 9.70892L22.1989 9.27364C22.0123 9.08709 21.7636 8.90055 21.5149 8.77619L21.1418 8.52747L20.8309 8.77619C20.7065 8.83837 20.6443 8.96273 20.52 9.02491C17.2243 11.5122 13.9287 12.1962 10.8196 11.0147C8.58108 10.2064 6.34252 10.0198 4.10397 10.7038C3.91743 10.766 3.73088 10.8282 3.48216 10.8904L3.3578 10.9526L3.17125 11.1391C3.17125 11.2013 3.10908 11.2013 3.04689 11.2635C2.79817 11.6366 2.48725 11.9475 2.23852 12.3206L1.05707 14.1238L2.98471 13.1289C3.29562 13.1289 3.54433 13.0046 3.73088 12.9424Z" fill="#55B02E"/>
<path d="M8.82979 8.71399L9.01633 8.77617C9.82469 9.08708 11.0683 9.39799 12.6229 9.39799C14.2396 9.39799 15.7942 9.0249 17.3487 8.40308L19.2763 7.47035L17.9705 7.03509C17.5974 6.91073 17.2243 6.78636 16.7891 6.72418H16.6025L16.416 6.78635C16.2294 6.84853 16.0429 6.97291 15.8563 7.03509C13.9909 7.71909 12.1254 7.84345 10.3222 7.346C10.1356 7.28382 9.94906 7.22163 9.76252 7.15944L9.57598 7.09726L9.38942 7.15944C9.01633 7.28381 8.64325 7.40818 8.27016 7.59472L6.83997 8.21654L8.33234 8.6518C8.45671 8.58962 8.64325 8.65181 8.82979 8.71399Z" fill="#55B02E"/>
<path d="M45.5719 30.78C43.8919 30.78 42.6226 30.3413 41.7639 29.464C40.9053 28.5867 40.4759 27.2707 40.4759 25.516V18.992H37.7599V16.36H40.4759V12.748L43.9759 11.852V16.36H47.7559V18.992H43.9759V25.292C43.9759 26.2627 44.1626 26.944 44.5359 27.336C44.9093 27.728 45.4226 27.924 46.0759 27.924C46.4306 27.924 46.7293 27.896 46.9719 27.84C47.2333 27.784 47.4853 27.7093 47.7279 27.616V30.388C47.4106 30.5187 47.0559 30.612 46.6639 30.668C46.2906 30.7427 45.9266 30.78 45.5719 30.78ZM56.8286 30.78C54.4579 30.78 52.6006 30.1267 51.2566 28.82C49.9126 27.5133 49.2406 25.7213 49.2406 23.444C49.2406 21.9693 49.5299 20.6813 50.1086 19.58C50.6873 18.4787 51.4899 17.62 52.5166 17.004C53.5619 16.388 54.7753 16.08 56.1566 16.08C57.5193 16.08 58.6579 16.3693 59.5726 16.948C60.4873 17.5267 61.1779 18.3387 61.6446 19.384C62.1299 20.4293 62.3726 21.652 62.3726 23.052V23.976H52.0686V22.128H59.8806L59.4046 22.52C59.4046 21.2133 59.1246 20.2147 58.5646 19.524C58.0233 18.8333 57.2299 18.488 56.1846 18.488C55.0273 18.488 54.1313 18.8987 53.4966 19.72C52.8806 20.5413 52.5726 21.6893 52.5726 23.164V23.528C52.5726 25.0587 52.9459 26.2067 53.6926 26.972C54.4579 27.7187 55.5313 28.092 56.9126 28.092C57.7153 28.092 58.4619 27.9893 59.1526 27.784C59.8619 27.56 60.5339 27.2053 61.1686 26.72L62.2046 29.072C61.5326 29.6133 60.7299 30.0333 59.7966 30.332C58.8633 30.6307 57.8739 30.78 56.8286 30.78ZM65.3084 30.5V19.972C65.3084 19.3747 65.2898 18.768 65.2524 18.152C65.2338 17.536 65.1871 16.9387 65.1124 16.36H68.5004L68.8924 20.224H68.3324C68.5191 19.2907 68.8271 18.516 69.2564 17.9C69.7044 17.284 70.2458 16.8267 70.8804 16.528C71.5151 16.2293 72.2058 16.08 72.9524 16.08C73.2884 16.08 73.5591 16.0987 73.7644 16.136C73.9698 16.1547 74.1751 16.2013 74.3804 16.276L74.3524 19.356C73.9978 19.2067 73.6898 19.1133 73.4284 19.076C73.1858 19.0387 72.8778 19.02 72.5044 19.02C71.7018 19.02 71.0204 19.188 70.4604 19.524C69.9191 19.86 69.5084 20.3267 69.2284 20.924C68.9671 21.5213 68.8364 22.2027 68.8364 22.968V30.5H65.3084ZM81.6519 30.78C80.4199 30.78 79.3372 30.4907 78.4039 29.912C77.4706 29.3147 76.7426 28.4653 76.2199 27.364C75.6972 26.2627 75.4359 24.9467 75.4359 23.416C75.4359 21.8853 75.6972 20.5787 76.2199 19.496C76.7426 18.3947 77.4706 17.5547 78.4039 16.976C79.3372 16.3787 80.4199 16.08 81.6519 16.08C82.8466 16.08 83.8919 16.3787 84.7879 16.976C85.7026 17.5547 86.3092 18.3387 86.6079 19.328H86.2999L86.6079 16.36H89.9679C89.9119 16.9387 89.8559 17.5267 89.7999 18.124C89.7626 18.7213 89.7439 19.3093 89.7439 19.888V30.5H86.2719L86.2439 27.588H86.5799C86.2812 28.5587 85.6746 29.3333 84.7599 29.912C83.8452 30.4907 82.8092 30.78 81.6519 30.78ZM82.6319 28.092C83.7332 28.092 84.6199 27.7093 85.2919 26.944C85.9639 26.16 86.2999 24.984 86.2999 23.416C86.2999 21.848 85.9639 20.6813 85.2919 19.916C84.6199 19.1507 83.7332 18.768 82.6319 18.768C81.5306 18.768 80.6439 19.1507 79.9719 19.916C79.2999 20.6813 78.9639 21.848 78.9639 23.416C78.9639 24.984 79.2906 26.16 79.9439 26.944C80.6159 27.7093 81.5119 28.092 82.6319 28.092ZM93.5552 36.548V19.888C93.5552 19.3093 93.5365 18.7213 93.4992 18.124C93.4619 17.5267 93.4059 16.9387 93.3312 16.36H96.7192L97.0272 19.328H96.7192C96.9992 18.3387 97.5872 17.5547 98.4832 16.976C99.3979 16.3787 100.453 16.08 101.647 16.08C102.898 16.08 103.99 16.3787 104.923 16.976C105.857 17.5547 106.585 18.3947 107.107 19.496C107.63 20.5787 107.891 21.8853 107.891 23.416C107.891 24.9467 107.63 26.2627 107.107 27.364C106.585 28.4653 105.857 29.3147 104.923 29.912C103.99 30.4907 102.898 30.78 101.647 30.78C100.471 30.78 99.4352 30.4907 98.5392 29.912C97.6432 29.3333 97.0459 28.5587 96.7472 27.588H97.0552V36.548H93.5552ZM100.667 28.092C101.787 28.092 102.683 27.7093 103.355 26.944C104.027 26.16 104.363 24.984 104.363 23.416C104.363 21.848 104.027 20.6813 103.355 19.916C102.683 19.1507 101.787 18.768 100.667 18.768C99.5659 18.768 98.6792 19.1507 98.0072 19.916C97.3352 20.6813 96.9992 21.848 96.9992 23.416C96.9992 24.984 97.3352 26.16 98.0072 26.944C98.6792 27.7093 99.5659 28.092 100.667 28.092ZM117.75 30.78C115.38 30.78 113.522 30.1267 112.178 28.82C110.834 27.5133 110.162 25.7213 110.162 23.444C110.162 21.9693 110.452 20.6813 111.03 19.58C111.609 18.4787 112.412 17.62 113.438 17.004C114.484 16.388 115.697 16.08 117.078 16.08C118.441 16.08 119.58 16.3693 120.494 16.948C121.409 17.5267 122.1 18.3387 122.566 19.384C123.052 20.4293 123.294 21.652 123.294 23.052V23.976H112.99V22.128H120.802L120.326 22.52C120.326 21.2133 120.046 20.2147 119.486 19.524C118.945 18.8333 118.152 18.488 117.106 18.488C115.949 18.488 115.053 18.8987 114.418 19.72C113.802 20.5413 113.494 21.6893 113.494 23.164V23.528C113.494 25.0587 113.868 26.2067 114.614 26.972C115.38 27.7187 116.453 28.092 117.834 28.092C118.637 28.092 119.384 27.9893 120.074 27.784C120.784 27.56 121.456 27.2053 122.09 26.72L123.126 29.072C122.454 29.6133 121.652 30.0333 120.718 30.332C119.785 30.6307 118.796 30.78 117.75 30.78ZM131.354 30.78C129.618 30.78 128.321 30.304 127.462 29.352C126.604 28.4 126.174 26.944 126.174 24.984V16.36H129.674V24.956C129.674 26.0013 129.889 26.776 130.318 27.28C130.748 27.7653 131.401 28.008 132.278 28.008C133.268 28.008 134.07 27.672 134.686 27C135.321 26.328 135.638 25.4413 135.638 24.34V16.36H139.138V30.5H135.722V27.616H136.114C135.704 28.624 135.078 29.408 134.238 29.968C133.417 30.5093 132.456 30.78 131.354 30.78ZM148.986 30.78C147.306 30.78 146.037 30.3413 145.178 29.464C144.319 28.5867 143.89 27.2707 143.89 25.516V18.992H141.174V16.36H143.89V12.748L147.39 11.852V16.36H151.17V18.992H147.39V25.292C147.39 26.2627 147.577 26.944 147.95 27.336C148.323 27.728 148.837 27.924 149.49 27.924C149.845 27.924 150.143 27.896 150.386 27.84C150.647 27.784 150.899 27.7093 151.142 27.616V30.388C150.825 30.5187 150.47 30.612 150.078 30.668C149.705 30.7427 149.341 30.78 148.986 30.78ZM159.007 30.78C157.775 30.78 156.693 30.4907 155.759 29.912C154.826 29.3147 154.098 28.4653 153.575 27.364C153.053 26.2627 152.791 24.9467 152.791 23.416C152.791 21.8853 153.053 20.5787 153.575 19.496C154.098 18.3947 154.826 17.5547 155.759 16.976C156.693 16.3787 157.775 16.08 159.007 16.08C160.202 16.08 161.247 16.3787 162.143 16.976C163.058 17.5547 163.665 18.3387 163.963 19.328H163.655L163.963 16.36H167.323C167.267 16.9387 167.211 17.5267 167.155 18.124C167.118 18.7213 167.099 19.3093 167.099 19.888V30.5H163.627L163.599 27.588H163.935C163.637 28.5587 163.03 29.3333 162.115 29.912C161.201 30.4907 160.165 30.78 159.007 30.78ZM159.987 28.092C161.089 28.092 161.975 27.7093 162.647 26.944C163.319 26.16 163.655 24.984 163.655 23.416C163.655 21.848 163.319 20.6813 162.647 19.916C161.975 19.1507 161.089 18.768 159.987 18.768C158.886 18.768 157.999 19.1507 157.327 19.916C156.655 20.6813 156.319 21.848 156.319 23.416C156.319 24.984 156.646 26.16 157.299 26.944C157.971 27.7093 158.867 28.092 159.987 28.092ZM170.519 30.5V26.608H174.439V30.5H170.519ZM183.234 30.78C182.002 30.78 180.919 30.4907 179.986 29.912C179.053 29.3147 178.325 28.4653 177.802 27.364C177.279 26.2627 177.018 24.9467 177.018 23.416C177.018 21.8853 177.279 20.5787 177.802 19.496C178.325 18.3947 179.053 17.5547 179.986 16.976C180.919 16.3787 182.002 16.08 183.234 16.08C184.429 16.08 185.474 16.3787 186.37 16.976C187.285 17.5547 187.891 18.3387 188.19 19.328H187.882L188.19 16.36H191.55C191.494 16.9387 191.438 17.5267 191.382 18.124C191.345 18.7213 191.326 19.3093 191.326 19.888V30.5H187.854L187.826 27.588H188.162C187.863 28.5587 187.257 29.3333 186.342 29.912C185.427 30.4907 184.391 30.78 183.234 30.78ZM184.214 28.092C185.315 28.092 186.202 27.7093 186.874 26.944C187.546 26.16 187.882 24.984 187.882 23.416C187.882 21.848 187.546 20.6813 186.874 19.916C186.202 19.1507 185.315 18.768 184.214 18.768C183.113 18.768 182.226 19.1507 181.554 19.916C180.882 20.6813 180.546 21.848 180.546 23.416C180.546 24.984 180.873 26.16 181.526 26.944C182.198 27.7093 183.094 28.092 184.214 28.092ZM195.137 30.5V16.36H198.637V30.5H195.137ZM194.941 13.7V10.284H198.833V13.7H194.941Z" fill="white"/>
</svg>
